<svg width="48" height="48" viewBox="0 0 48 48" fill="none" xmlns="http://www.w3.org/2000/svg">
  <defs>
    <linearGradient id="vg" x1="4" y1="4" x2="44" y2="44" gradientUnits="userSpaceOnUse">
      <stop stop-color="#10b981"/>
      <stop offset="0.5" stop-color="#0ea5e9"/>
      <stop offset="1" stop-color="#f59e0b"/>
    </linearGradient>
  </defs>
  <rect x="2" y="2" width="44" height="44" rx="12" fill="#060d14"/>
  <rect x="2.75" y="2.75" width="42.5" height="42.5" rx="11.25" stroke="url(#vg)" stroke-opacity="0.5" stroke-width="1.5"/>
  <rect x="7" y="7" width="12" height="12" rx="3.5" fill="url(#vg)"/>
  <rect x="9.2" y="9.2" width="7.6" height="7.6" rx="2.2" fill="#060d14"/>
  <rect x="11" y="11" width="4" height="4" rx="1.2" fill="url(#vg)"/>
  <rect x="29" y="7" width="12" height="12" rx="3.5" fill="url(#vg)"/>
  <rect x="31.2" y="9.2" width="7.6" height="7.6" rx="2.2" fill="#060d14"/>
  <rect x="33" y="11" width="4" height="4" rx="1.2" fill="url(#vg)"/>
  <rect x="7" y="29" width="12" height="12" rx="3.5" fill="url(#vg)"/>
  <rect x="9.2" y="31.2" width="7.6" height="7.6" rx="2.2" fill="#060d14"/>
  <rect x="11" y="33" width="4" height="4" rx="1.2" fill="url(#vg)"/>
  <path d="M27.5 27.5 L34 41 L40.5 27.5" stroke="url(#vg)" stroke-width="4.6" stroke-linecap="round" stroke-linejoin="round" fill="none"/>
</svg>
